<svg xmlns="http://www.w3.org/2000/svg" width="39" height="39" viewBox="0 0 39 39" fill="none">
  <path d="M31.7662 19.1391C31.7365 16.7177 31.0154 14.3552 29.6879 12.3299C28.3604 10.3046 26.4819 8.70081 24.2735 7.70737C22.065 6.71393 19.6186 6.37226 17.2225 6.72256C14.8265 7.07287 12.5803 8.10057 10.7488 9.68467C8.91715 11.2687 7.57636 13.3432 6.88425 15.6638C6.19216 17.9844 6.17758 20.4544 6.84226 22.783C7.50693 25.1116 8.82316 27.2016 10.6359 28.8072C12.4487 30.4129 14.6825 31.467 17.0743 31.8455V22.8398H13.8977V19.1391H17.0743V16.3278C17.0008 15.6741 17.0716 15.0123 17.2819 14.389C17.4922 13.7656 17.8367 13.1961 18.2911 12.7205C18.7456 12.2448 19.2988 11.8747 19.9118 11.6363C20.5249 11.3979 21.183 11.2969 21.8393 11.3406C22.7919 11.3536 23.7424 11.4386 24.6823 11.5947V14.7713H23.094C22.8202 14.7367 22.5419 14.7642 22.2802 14.8516C22.0183 14.939 21.7794 15.0841 21.5812 15.2762C21.3829 15.4684 21.2305 15.7026 21.135 15.9615C21.0394 16.2206 21.0033 16.4977 21.0292 16.7725V19.1708H24.5553L23.9835 22.8716H21.0451V31.7661C24.0468 31.2914 26.779 29.7564 28.746 27.4397C30.7129 25.123 31.7844 22.1781 31.7662 19.1391Z" fill="#5B76C7"/>
</svg>
