<svg xmlns="http://www.w3.org/2000/svg" width="35" height="34" viewBox="0 0 35 34" fill="none">
  <path fill-rule="evenodd" clip-rule="evenodd" d="M21.6535 5.26811C18.9428 4.63227 16.1218 4.63227 13.4111 5.26811C9.49656 6.18633 6.44004 9.24285 5.5218 13.1574C4.88596 15.8681 4.88596 18.6891 5.5218 21.3998C6.44004 25.3144 9.49656 28.3708 13.4111 29.2891C16.1218 29.925 18.9428 29.925 21.6535 29.2891C25.568 28.3708 28.6245 25.3144 29.5428 21.3998C30.1787 18.6891 30.1787 15.8681 29.5428 13.1574C28.6245 9.24287 25.568 6.18633 21.6535 5.26811ZM12.7507 17.2786C12.7507 14.6378 14.8915 12.497 17.5323 12.497C20.1731 12.497 22.3138 14.6378 22.3138 17.2786C22.3138 19.9194 20.1731 22.0601 17.5323 22.0601C14.8915 22.0601 12.7507 19.9194 12.7507 17.2786ZM17.5323 14.0909C15.7717 14.0909 14.3445 15.518 14.3445 17.2786C14.3445 19.0392 15.7717 20.4663 17.5323 20.4663C19.2927 20.4663 20.72 19.0392 20.72 17.2786C20.72 15.518 19.2927 14.0909 17.5323 14.0909ZM22.8451 12.6298C23.5787 12.6298 24.1733 12.0352 24.1733 11.3016C24.1733 10.5681 23.5787 9.97339 22.8451 9.97339C22.1115 9.97339 21.5169 10.5681 21.5169 11.3016C21.5169 12.0352 22.1115 12.6298 22.8451 12.6298Z" fill="#FF7298"/>
</svg>
