<svg xmlns="http://www.w3.org/2000/svg" width="180" height="180" viewBox="0 0 180 180" version="1.1"><path d="M 94.333 22.667 C 94.700 23.033, 95.300 23.033, 95.667 22.667 C 96.033 22.300, 95.733 22, 95 22 C 94.267 22, 93.967 22.300, 94.333 22.667 M 82.142 66.638 C 74.498 69.836, 66.485 77.300, 62.967 84.500 C 60.875 88.780, 60.521 90.940, 60.512 99.500 C 60.502 108.417, 60.801 110.111, 63.272 115.143 C 64.797 118.246, 68.093 122.674, 70.597 124.982 C 90.608 143.428, 121.693 134.976, 129.410 108.991 C 131.423 102.212, 131.423 96.788, 129.410 90.009 C 127.479 83.506, 125.869 80.802, 120.573 75.165 C 114.164 68.342, 106.150 64.732, 96.500 64.319 C 89.625 64.025, 87.606 64.351, 82.142 66.638 M 101.630 74.179 C 100.234 78.111, 99.507 79.023, 98.180 78.506 C 97.256 78.146, 96.275 77.784, 96 77.702 C 95.725 77.619, 91.122 80.015, 85.772 83.026 L 76.044 88.500 76.022 100.042 L 76 111.583 81.250 114.319 C 84.138 115.823, 88.652 118.235, 91.282 119.679 C 96.685 122.644, 96.070 122.790, 107.768 115.764 C 111.215 113.694, 114.477 112, 115.018 112 C 115.606 112, 116 107.190, 116 100 C 116 92.667, 115.611 88, 115 88 C 112.869 88, 114.140 86.180, 116.750 85.495 C 119.416 84.796, 119.362 84.731, 115 83.378 C 108.763 81.445, 107.199 79.987, 105.165 74.214 L 103.399 69.198 101.630 74.179 M 20 89 C 20 89.733, 20.300 90.033, 20.667 89.667 C 21.033 89.300, 21.033 88.700, 20.667 88.333 C 20.300 87.967, 20 88.267, 20 89 M 65.500 137 C 65.840 137.550, 66.343 138, 66.618 138 C 66.893 138, 66.840 137.550, 66.500 137 C 66.160 136.450, 65.657 136, 65.382 136 C 65.107 136, 65.160 136.450, 65.500 137" stroke="none" fill="#d54173" fill-rule="evenodd"/><path d="" stroke="none" fill="#000000" fill-rule="evenodd"/><path d="M 86.813 13.683 C 87.534 13.972, 88.397 13.936, 88.729 13.604 C 89.061 13.272, 88.471 13.036, 87.417 13.079 C 86.252 13.127, 86.015 13.364, 86.813 13.683 M 91.405 15.155 C 90.962 15.870, 91.130 16.038, 91.845 15.595 C 92.480 15.203, 93 14.684, 93 14.441 C 93 13.607, 92.117 14.002, 91.405 15.155 M 108.405 16.155 C 107.962 16.870, 108.130 17.038, 108.845 16.595 C 109.480 16.203, 110 15.684, 110 15.441 C 110 14.607, 109.117 15.002, 108.405 16.155 M 93.500 17 C 93.840 17.550, 94.343 18, 94.618 18 C 94.893 18, 94.840 17.550, 94.500 17 C 94.160 16.450, 93.657 16, 93.382 16 C 93.107 16, 93.160 16.450, 93.500 17 M 99.500 21 C 99.840 21.550, 100.343 22, 100.618 22 C 100.893 22, 100.840 21.550, 100.500 21 C 100.160 20.450, 99.657 20, 99.382 20 C 99.107 20, 99.160 20.450, 99.500 21 M 89.250 22.689 C 90.213 22.941, 91.787 22.941, 92.750 22.689 C 93.713 22.438, 92.925 22.232, 91 22.232 C 89.075 22.232, 88.287 22.438, 89.250 22.689 M 112.500 25 C 112.840 25.550, 113.343 26, 113.618 26 C 113.893 26, 113.840 25.550, 113.500 25 C 113.160 24.450, 112.657 24, 112.382 24 C 112.107 24, 112.160 24.450, 112.500 25 M 122.268 25.581 C 123.223 26.726, 123.666 28.035, 123.252 28.491 C 122.838 28.948, 123.024 29.021, 123.665 28.654 C 124.305 28.287, 125.031 28.553, 125.278 29.244 C 125.524 29.935, 126.008 30.242, 126.353 29.927 C 126.697 29.612, 125.528 28.037, 123.755 26.427 C 121.982 24.817, 121.313 24.437, 122.268 25.581 M 103.500 26 C 103.840 26.550, 104.343 27, 104.618 27 C 104.893 27, 104.840 26.550, 104.500 26 C 104.160 25.450, 103.657 25, 103.382 25 C 103.107 25, 103.160 25.450, 103.500 26 M 117.333 26.667 C 117.700 27.033, 118.300 27.033, 118.667 26.667 C 119.033 26.300, 118.733 26, 118 26 C 117.267 26, 116.967 26.300, 117.333 26.667 M 106.500 28 C 106.840 28.550, 107.343 29, 107.618 29 C 107.893 29, 107.840 28.550, 107.500 28 C 107.160 27.450, 106.657 27, 106.382 27 C 106.107 27, 106.160 27.450, 106.500 28 M 138 31.500 C 139.292 32.875, 140.574 34, 140.849 34 C 141.124 34, 140.292 32.875, 139 31.500 C 137.708 30.125, 136.426 29, 136.151 29 C 135.876 29, 136.708 30.125, 138 31.500 M 48.405 38.155 C 47.962 38.870, 48.130 39.038, 48.845 38.595 C 49.998 37.883, 50.393 37, 49.559 37 C 49.316 37, 48.797 37.520, 48.405 38.155 M 146.500 41 C 146.840 41.550, 147.343 42, 147.618 42 C 147.893 42, 147.840 41.550, 147.500 41 C 147.160 40.450, 146.657 40, 146.382 40 C 146.107 40, 146.160 40.450, 146.500 41 M 41.405 44.250 L 39.500 46.500 41.750 44.595 C 42.987 43.547, 44 42.535, 44 42.345 C 44 41.545, 43.195 42.136, 41.405 44.250 M 149.500 43 C 149.840 43.550, 150.343 44, 150.618 44 C 150.893 44, 150.840 43.550, 150.500 43 C 150.160 42.450, 149.657 42, 149.382 42 C 149.107 42, 149.160 42.450, 149.500 43 M 130.500 47 C 130.840 47.550, 131.343 48, 131.618 48 C 131.893 48, 131.840 47.550, 131.500 47 C 131.160 46.450, 130.657 46, 130.382 46 C 130.107 46, 130.160 46.450, 130.500 47 M 108.405 50.155 C 107.962 50.870, 108.130 51.038, 108.845 50.595 C 109.480 50.203, 110 49.684, 110 49.441 C 110 48.607, 109.117 49.002, 108.405 50.155 M 134.500 51 C 134.840 51.550, 135.343 52, 135.618 52 C 135.893 52, 135.840 51.550, 135.500 51 C 135.160 50.450, 134.657 50, 134.382 50 C 134.107 50, 134.160 50.450, 134.500 51 M 90.768 52.725 C 92.565 52.947, 95.265 52.943, 96.768 52.715 C 98.271 52.486, 96.800 52.304, 93.500 52.310 C 90.200 52.315, 88.971 52.502, 90.768 52.725 M 135.333 53.667 C 135.700 54.033, 136.300 54.033, 136.667 53.667 C 137.033 53.300, 136.733 53, 136 53 C 135.267 53, 134.967 53.300, 135.333 53.667 M 30.405 58.155 C 29.962 58.870, 30.130 59.038, 30.845 58.595 C 31.480 58.203, 32 57.684, 32 57.441 C 32 56.607, 31.117 57.002, 30.405 58.155 M 120.315 59.250 C 120.254 60.487, 120.430 60.910, 120.706 60.189 C 121.092 59.179, 121.700 59.292, 123.354 60.682 C 125.065 62.120, 125.009 61.930, 123.076 59.743 C 121.742 58.234, 120.601 57, 120.538 57 C 120.476 57, 120.376 58.013, 120.315 59.250 M 65.405 62.155 C 64.962 62.870, 65.130 63.038, 65.845 62.595 C 66.480 62.203, 67 61.684, 67 61.441 C 67 60.607, 66.117 61.002, 65.405 62.155 M 94.813 63.683 C 95.534 63.972, 96.397 63.936, 96.729 63.604 C 97.061 63.272, 96.471 63.036, 95.417 63.079 C 94.252 63.127, 94.015 63.364, 94.813 63.683 M 86.333 64.667 C 86.700 65.033, 87.300 65.033, 87.667 64.667 C 88.033 64.300, 87.733 64, 87 64 C 86.267 64, 85.967 64.300, 86.333 64.667 M 102.333 64.667 C 102.700 65.033, 103.300 65.033, 103.667 64.667 C 104.033 64.300, 103.733 64, 103 64 C 102.267 64, 101.967 64.300, 102.333 64.667 M 80.250 66.491 C 78.463 67.268, 77 68.127, 77 68.401 C 77 68.881, 84.071 66.196, 84.917 65.395 C 85.791 64.567, 83.369 65.135, 80.250 66.491 M 108.083 66.373 C 109.112 67.294, 115 69.999, 115 69.551 C 115 68.975, 109.456 66, 108.383 66 C 107.989 66, 107.854 66.168, 108.083 66.373 M 57.405 70.155 C 56.962 70.870, 57.130 71.038, 57.845 70.595 C 58.480 70.203, 59 69.684, 59 69.441 C 59 68.607, 58.117 69.002, 57.405 70.155 M 70.879 73.077 L 66.500 77.154 71.250 73.365 C 73.862 71.281, 76 69.447, 76 69.288 C 76 68.517, 74.908 69.325, 70.879 73.077 M 103 70 C 103 70.733, 103.300 71.033, 103.667 70.667 C 104.033 70.300, 104.033 69.700, 103.667 69.333 C 103.300 68.967, 103 69.267, 103 70 M 119.500 74 C 121.648 76.200, 123.631 78, 123.906 78 C 124.181 78, 122.648 76.200, 120.500 74 C 118.352 71.800, 116.369 70, 116.094 70 C 115.819 70, 117.352 71.800, 119.500 74 M 102 73 C 102 73.733, 102.300 74.033, 102.667 73.667 C 103.033 73.300, 103.033 72.700, 102.667 72.333 C 102.300 71.967, 102 72.267, 102 73 M 100.501 76.997 C 100.028 78.487, 99.311 78.947, 98.160 78.498 C 97.247 78.143, 96.275 77.784, 96 77.702 C 95.725 77.619, 91.122 80.015, 85.772 83.026 L 76.044 88.500 76.022 100.042 L 76 111.583 81.250 114.319 C 84.138 115.823, 88.652 118.235, 91.282 119.679 C 96.685 122.644, 96.070 122.790, 107.768 115.764 C 111.215 113.694, 114.477 112, 115.018 112 C 116.692 112, 116.270 89.127, 114.564 87.421 C 112.199 85.057, 108.063 87.666, 105.538 93.114 L 103.382 97.769 101.198 93.009 C 99.092 88.417, 98.359 87.850, 91.500 85.503 C 89.832 84.933, 90.231 84.543, 93.897 83.160 C 98.070 81.585, 103.044 76.711, 101.774 75.441 C 101.449 75.116, 100.876 75.816, 100.501 76.997 M 105 76 C 105 76.733, 105.300 77.033, 105.667 76.667 C 106.033 76.300, 106.033 75.700, 105.667 75.333 C 105.300 74.967, 105 75.267, 105 76 M 65.278 79.250 C 63.779 81.188, 62.836 83, 63.326 83 C 63.570 83, 64.507 81.875, 65.408 80.500 C 67.094 77.927, 67 77.024, 65.278 79.250 M 108.500 81 C 108.840 81.550, 109.343 82, 109.618 82 C 109.893 82, 109.840 81.550, 109.500 81 C 109.160 80.450, 108.657 80, 108.382 80 C 108.107 80, 108.160 80.450, 108.500 81 M 151.872 81.750 C 150.629 83.336, 150.664 83.371, 152.250 82.128 C 153.213 81.373, 154 80.585, 154 80.378 C 154 79.555, 153.179 80.084, 151.872 81.750 M 21 82 C 21 82.733, 21.300 83.033, 21.667 82.667 C 22.033 82.300, 22.033 81.700, 21.667 81.333 C 21.300 80.967, 21 81.267, 21 82 M 126.500 83 C 126.840 83.550, 127.343 84, 127.618 84 C 127.893 84, 127.840 83.550, 127.500 83 C 127.160 82.450, 126.657 82, 126.382 82 C 126.107 82, 126.160 82.450, 126.500 83 M 61.624 85.539 C 60.659 88.053, 60.943 88.702, 62.122 86.675 C 62.706 85.671, 62.973 84.639, 62.715 84.382 C 62.458 84.124, 61.966 84.645, 61.624 85.539 M 116 85 C 115.175 85.533, 114.950 85.969, 115.500 85.969 C 116.050 85.969, 117.175 85.533, 118 85 C 118.825 84.467, 119.050 84.031, 118.500 84.031 C 117.950 84.031, 116.825 84.467, 116 85 M 148.405 86.155 C 147.962 86.870, 148.130 87.038, 148.845 86.595 C 149.998 85.883, 150.393 85, 149.559 85 C 149.316 85, 148.797 85.520, 148.405 86.155 M 129 89 C 129 89.733, 129.300 90.033, 129.667 89.667 C 130.033 89.300, 130.033 88.700, 129.667 88.333 C 129.300 87.967, 129 88.267, 129 89 M 140.500 89 C 140.840 89.550, 141.343 90, 141.618 90 C 141.893 90, 141.840 89.550, 141.500 89 C 141.160 88.450, 140.657 88, 140.382 88 C 140.107 88, 140.160 88.450, 140.500 89 M 60.079 90.583 C 60.127 91.748, 60.364 91.985, 60.683 91.188 C 60.972 90.466, 60.936 89.603, 60.604 89.271 C 60.272 88.939, 60.036 89.529, 60.079 90.583 M 130 93 C 130 93.733, 130.300 94.033, 130.667 93.667 C 131.033 93.300, 131.033 92.700, 130.667 92.333 C 130.300 91.967, 130 92.267, 130 93 M 141.405 93.155 C 140.962 93.870, 141.130 94.038, 141.845 93.595 C 142.998 92.883, 143.393 92, 142.559 92 C 142.316 92, 141.797 92.520, 141.405 93.155 M 59.310 99.500 C 59.315 102.800, 59.502 104.029, 59.725 102.232 C 59.947 100.435, 59.943 97.735, 59.715 96.232 C 59.486 94.729, 59.304 96.200, 59.310 99.500 M 20 105 C 20 105.733, 20.300 106.033, 20.667 105.667 C 21.033 105.300, 21.033 104.700, 20.667 104.333 C 20.300 103.967, 20 104.267, 20 105 M 130 106 C 130 106.733, 130.300 107.033, 130.667 106.667 C 131.033 106.300, 131.033 105.700, 130.667 105.333 C 130.300 104.967, 130 105.267, 130 106 M 141 106 C 141 106.733, 141.300 107.033, 141.667 106.667 C 142.033 106.300, 142.033 105.700, 141.667 105.333 C 141.300 104.967, 141 105.267, 141 106 M 60.079 108.583 C 60.127 109.748, 60.364 109.985, 60.683 109.188 C 60.972 108.466, 60.936 107.603, 60.604 107.271 C 60.272 106.939, 60.036 107.529, 60.079 108.583 M 129 110 C 129 110.733, 129.300 111.033, 129.667 110.667 C 130.033 110.300, 130.033 109.700, 129.667 109.333 C 129.300 108.967, 129 109.267, 129 110 M 61.031 111.500 C 61.031 112.050, 61.467 113.175, 62 114 C 62.533 114.825, 62.969 115.050, 62.969 114.500 C 62.969 113.950, 62.533 112.825, 62 112 C 61.467 111.175, 61.031 110.950, 61.031 111.500 M 128 113 C 128 113.733, 128.300 114.033, 128.667 113.667 C 129.033 113.300, 129.033 112.700, 128.667 112.333 C 128.300 111.967, 128 112.267, 128 113 M 143 112.941 C 143 113.459, 143.445 114.157, 143.989 114.493 C 144.555 114.843, 144.723 114.442, 144.382 113.552 C 143.717 111.820, 143 111.503, 143 112.941 M 126 117 C 125.411 118.100, 125.155 119, 125.430 119 C 125.705 119, 126.411 118.100, 127 117 C 127.589 115.900, 127.845 115, 127.570 115 C 127.295 115, 126.589 115.900, 126 117 M 64.500 119 C 64.840 119.550, 65.343 120, 65.618 120 C 65.893 120, 65.840 119.550, 65.500 119 C 65.160 118.450, 64.657 118, 64.382 118 C 64.107 118, 64.160 118.450, 64.500 119 M 122.405 122.250 L 120.500 124.500 122.750 122.595 C 123.987 121.547, 125 120.535, 125 120.345 C 125 119.545, 124.195 120.136, 122.405 122.250 M 145 121 C 145 121.733, 145.300 122.033, 145.667 121.667 C 146.033 121.300, 146.033 120.700, 145.667 120.333 C 145.300 119.967, 145 120.267, 145 121 M 67 122.313 C 67 122.485, 68.463 123.948, 70.250 125.563 L 73.500 128.500 70.563 125.250 C 67.825 122.221, 67 121.540, 67 122.313 M 116.872 127.750 C 115.603 129.369, 115.650 129.390, 117.500 128.033 C 118.600 127.226, 119.688 126.439, 119.917 126.283 C 120.146 126.127, 119.863 126, 119.289 126 C 118.715 126, 117.627 126.787, 116.872 127.750 M 74.500 129 C 74.840 129.550, 75.343 130, 75.618 130 C 75.893 130, 75.840 129.550, 75.500 129 C 75.160 128.450, 74.657 128, 74.382 128 C 74.107 128, 74.160 128.450, 74.500 129 M 58 129.378 C 58 129.585, 58.788 130.373, 59.750 131.128 C 61.336 132.371, 61.371 132.336, 60.128 130.750 C 58.821 129.084, 58 128.555, 58 129.378 M 113.405 130.155 C 112.962 130.870, 113.130 131.038, 113.845 130.595 C 114.480 130.203, 115 129.684, 115 129.441 C 115 128.607, 114.117 129.002, 113.405 130.155 M 78.441 131.445 C 79.509 132.300, 80.821 133, 81.358 133 C 82.628 133, 82.061 132.538, 79 131.080 C 76.643 129.958, 76.611 129.978, 78.441 131.445 M 127.437 133.250 L 124.500 136.500 127.750 133.563 C 130.779 130.825, 131.460 130, 130.687 130 C 130.515 130, 129.052 131.463, 127.437 133.250 M 83.333 133.667 C 83.700 134.033, 84.300 134.033, 84.667 133.667 C 85.033 133.300, 84.733 133, 84 133 C 83.267 133, 82.967 133.300, 83.333 133.667 M 105.813 133.683 C 106.534 133.972, 107.397 133.936, 107.729 133.604 C 108.061 133.272, 107.471 133.036, 106.417 133.079 C 105.252 133.127, 105.015 133.364, 105.813 133.683 M 63.500 135 C 63.840 135.550, 64.343 136, 64.618 136 C 64.893 136, 64.840 135.550, 64.500 135 C 64.160 134.450, 63.657 134, 63.382 134 C 63.107 134, 63.160 134.450, 63.500 135 M 86.333 134.667 C 86.700 135.033, 87.300 135.033, 87.667 134.667 C 88.033 134.300, 87.733 134, 87 134 C 86.267 134, 85.967 134.300, 86.333 134.667 M 102.333 134.667 C 102.700 135.033, 103.300 135.033, 103.667 134.667 C 104.033 134.300, 103.733 134, 103 134 C 102.267 134, 101.967 134.300, 102.333 134.667 M 93.762 135.707 C 95.006 135.946, 96.806 135.937, 97.762 135.687 C 98.718 135.437, 97.700 135.241, 95.500 135.252 C 93.300 135.263, 92.518 135.468, 93.762 135.707 M 121.405 138.155 C 120.962 138.870, 121.130 139.038, 121.845 138.595 C 122.480 138.203, 123 137.684, 123 137.441 C 123 136.607, 122.117 137.002, 121.405 138.155 M 133 143.500 C 132.140 144.536, 132.102 145, 132.878 145 C 133.495 145, 134 144.523, 134 143.941 C 134 143.359, 134.520 143.203, 135.155 143.595 C 135.870 144.038, 136.038 143.870, 135.595 143.155 C 134.680 141.673, 134.496 141.697, 133 143.500 M 133.946 147.750 L 130.500 151.500 134.250 148.054 C 137.740 144.846, 138.460 144, 137.696 144 C 137.529 144, 135.842 145.688, 133.946 147.750 M 91.750 146.662 C 92.438 146.940, 93.563 146.940, 94.250 146.662 C 94.938 146.385, 94.375 146.158, 93 146.158 C 91.625 146.158, 91.063 146.385, 91.750 146.662 M 97.813 146.683 C 98.534 146.972, 99.397 146.936, 99.729 146.604 C 100.061 146.272, 99.471 146.036, 98.417 146.079 C 97.252 146.127, 97.015 146.364, 97.813 146.683 M 46 148.378 C 46 148.585, 46.788 149.373, 47.750 150.128 C 49.336 151.371, 49.371 151.336, 48.128 149.750 C 46.821 148.084, 46 147.555, 46 148.378 M 52.500 154 C 52.840 154.550, 53.343 155, 53.618 155 C 53.893 155, 53.840 154.550, 53.500 154 C 53.160 153.450, 52.657 153, 52.382 153 C 52.107 153, 52.160 153.450, 52.500 154 M 104.333 163.667 C 104.700 164.033, 105.300 164.033, 105.667 163.667 C 106.033 163.300, 105.733 163, 105 163 C 104.267 163, 103.967 163.300, 104.333 163.667 M 101.333 167.667 C 101.700 168.033, 102.300 168.033, 102.667 167.667 C 103.033 167.300, 102.733 167, 102 167 C 101.267 167, 100.967 167.300, 101.333 167.667" stroke="none" fill="#f35e90" fill-rule="evenodd"/><path d="" stroke="none" fill="#000000" fill-rule="evenodd"/><path d="M 82.565 11.895 C 81.822 13.097, 84.603 14.089, 86.584 13.329 C 87.859 12.840, 87.908 12.557, 86.834 11.876 C 85.087 10.769, 83.256 10.777, 82.565 11.895 M 88 14 C 86.172 15.181, 87.751 15.181, 90.500 14 C 91.819 13.433, 91.989 13.122, 91 13.086 C 90.175 13.055, 88.825 13.467, 88 14 M 93.333 14.667 C 93.700 15.033, 94.300 15.033, 94.667 14.667 C 95.033 14.300, 94.733 14, 94 14 C 93.267 14, 92.967 14.300, 93.333 14.667 M 103 14.393 C 103 15.364, 105.817 15.729, 107.091 14.923 C 108.116 14.273, 107.751 14.026, 105.750 14.015 C 104.237 14.007, 103 14.177, 103 14.393 M 96.333 15.667 C 96.700 16.033, 97.300 16.033, 97.667 15.667 C 98.033 15.300, 97.733 15, 97 15 C 96.267 15, 95.967 15.300, 96.333 15.667 M 110.333 15.667 C 110.700 16.033, 111.300 16.033, 111.667 15.667 C 112.033 15.300, 111.733 15, 111 15 C 110.267 15, 109.967 15.300, 110.333 15.667 M 114.333 16.667 C 114.700 17.033, 115.300 17.033, 115.667 16.667 C 116.033 16.300, 115.733 16, 115 16 C 114.267 16, 113.967 16.300, 114.333 16.667 M 115.864 21.279 C 117.053 22.762, 116.953 23.082, 115.083 23.773 C 112.993 24.547, 113.019 24.643, 116.099 27.533 C 118.749 30.021, 119.071 30.137, 118.094 28.250 C 116.713 25.582, 116.952 25.535, 121.740 27.536 L 125.416 29.072 122.958 26.438 C 119.903 23.165, 113.841 18.756, 115.864 21.279 M 126.500 22 C 126.840 22.550, 127.343 23, 127.618 23 C 127.893 23, 127.840 22.550, 127.500 22 C 127.160 21.450, 126.657 21, 126.382 21 C 126.107 21, 126.160 21.450, 126.500 22 M 86.333 22.667 C 86.700 23.033, 87.300 23.033, 87.667 22.667 C 88.033 22.300, 87.733 22, 87 22 C 86.267 22, 85.967 22.300, 86.333 22.667 M 110.500 23 C 110.840 23.550, 111.343 24, 111.618 24 C 111.893 24, 111.840 23.550, 111.500 23 C 111.160 22.450, 110.657 22, 110.382 22 C 110.107 22, 110.160 22.450, 110.500 23 M 129.500 24 C 129.840 24.550, 130.343 25, 130.618 25 C 130.893 25, 130.840 24.550, 130.500 24 C 130.160 23.450, 129.657 23, 129.382 23 C 129.107 23, 129.160 23.450, 129.500 24 M 75.333 24.667 C 75.700 25.033, 76.300 25.033, 76.667 24.667 C 77.033 24.300, 76.733 24, 76 24 C 75.267 24, 74.967 24.300, 75.333 24.667 M 104.500 26 C 104.840 26.550, 105.343 27, 105.618 27 C 105.893 27, 105.840 26.550, 105.500 26 C 105.160 25.450, 104.657 25, 104.382 25 C 104.107 25, 104.160 25.450, 104.500 26 M 133.500 27 C 134.495 28.100, 135.535 29, 135.810 29 C 136.085 29, 135.495 28.100, 134.500 27 C 133.505 25.900, 132.465 25, 132.190 25 C 131.915 25, 132.505 25.900, 133.500 27 M 53.405 34.155 C 52.962 34.870, 53.130 35.038, 53.845 34.595 C 54.998 33.883, 55.393 33, 54.559 33 C 54.316 33, 53.797 33.520, 53.405 34.155 M 141.500 35 C 141.840 35.550, 142.343 36, 142.618 36 C 142.893 36, 142.840 35.550, 142.500 35 C 142.160 34.450, 141.657 34, 141.382 34 C 141.107 34, 141.160 34.450, 141.500 35 M 50.405 36.155 C 49.962 36.870, 50.130 37.038, 50.845 36.595 C 51.998 35.883, 52.393 35, 51.559 35 C 51.316 35, 50.797 35.520, 50.405 36.155 M 45.405 40.250 L 43.500 42.500 45.750 40.595 C 47.864 38.805, 48.455 38, 47.655 38 C 47.465 38, 46.453 39.013, 45.405 40.250 M 144.500 39 C 144.840 39.550, 145.343 40, 145.618 40 C 145.893 40, 145.840 39.550, 145.500 39 C 145.160 38.450, 144.657 38, 144.382 38 C 144.107 38, 144.160 38.450, 144.500 39 M 151.500 44 C 151.840 44.550, 152.343 45, 152.618 45 C 152.893 45, 152.840 44.550, 152.500 44 C 152.160 43.450, 151.657 43, 151.382 43 C 151.107 43, 151.160 43.450, 151.500 44 M 37.405 48.250 L 35.500 50.500 37.750 48.595 C 39.864 46.805, 40.455 46, 39.655 46 C 39.465 46, 38.453 47.013, 37.405 48.250 M 127.218 48.023 C 126.199 49.655, 126.201 50.121, 127.227 50.435 C 127.927 50.649, 130.035 51.316, 131.912 51.916 C 133.789 52.517, 135.497 52.837, 135.707 52.626 C 136.181 52.152, 130.105 46, 129.164 46 C 128.788 46, 127.913 46.910, 127.218 48.023 M 150.405 48.155 C 149.962 48.870, 150.130 49.038, 150.845 48.595 C 151.998 47.883, 152.393 47, 151.559 47 C 151.316 47, 150.797 47.520, 150.405 48.155 M 108.519 51.500 C 107.941 53.362, 107.025 53.500, 95.199 53.500 C 82.916 53.500, 82.272 53.608, 75.557 56.788 C 66.496 61.079, 61.101 65.600, 56.093 73.098 C 45.951 88.287, 45.326 107.736, 54.475 123.507 C 60.051 133.119, 72.422 142.262, 83.468 144.936 C 89.893 146.491, 101.355 146.520, 107.016 144.996 C 121.338 141.139, 134.614 128.634, 139.356 114.533 C 141.560 107.979, 142.424 97.541, 141.199 92.258 C 140.608 89.705, 140.587 88.245, 141.148 88.592 C 142.707 89.555, 140.843 83.666, 138.904 81.500 C 137.919 80.400, 135.515 77.844, 133.561 75.821 C 131.607 73.798, 130.246 71.524, 130.536 70.768 C 130.835 69.987, 128.677 66.823, 125.541 63.447 C 122.504 60.176, 120.286 58.281, 120.611 59.237 C 121.717 62.477, 112.094 56.183, 110.528 52.641 C 109.294 49.849, 109.071 49.722, 108.519 51.500 M 148.432 51.110 C 147.470 52.667, 148.644 53.299, 150.534 52.241 C 152.039 51.399, 152.050 51.233, 150.641 50.693 C 149.774 50.360, 148.780 50.548, 148.432 51.110 M 33.405 53.155 C 32.962 53.870, 33.130 54.038, 33.845 53.595 C 34.998 52.883, 35.393 52, 34.559 52 C 34.316 52, 33.797 52.520, 33.405 53.155 M 31.405 56.155 C 30.962 56.870, 31.130 57.038, 31.845 56.595 C 32.998 55.883, 33.393 55, 32.559 55 C 32.316 55, 31.797 55.520, 31.405 56.155 M 89.305 64.037 C 78.150 65.607, 67.243 73.949, 62.204 84.764 C 59.930 89.644, 59.531 91.843, 59.531 99.500 C 59.531 107.157, 59.930 109.356, 62.204 114.236 C 71.313 133.786, 95.296 141.420, 113.385 130.527 C 120.132 126.464, 124.214 122.050, 127.745 115 C 130.205 110.089, 130.499 108.428, 130.488 99.500 C 130.474 87.310, 128.468 82.398, 120.037 73.913 C 111.893 65.716, 101.377 62.337, 89.305 64.037 M 156.500 68 C 156.840 68.550, 157.343 69, 157.618 69 C 157.893 69, 157.840 68.550, 157.500 68 C 157.160 67.450, 156.657 67, 156.382 67 C 156.107 67, 156.160 67.450, 156.500 68 M 102.203 74.717 C 100.787 79.443, 98.705 81.500, 93.434 83.381 C 90.092 84.574, 89.801 84.891, 91.500 85.486 C 98.463 87.927, 99.091 88.415, 101.198 93.009 L 103.382 97.769 105.589 93.006 C 107.460 88.966, 108.514 87.969, 112.535 86.433 L 117.275 84.623 113.387 83.280 C 108.487 81.586, 106.415 79.517, 104.726 74.630 L 103.389 70.760 102.203 74.717 M 156.079 75.583 C 156.127 76.748, 156.364 76.985, 156.683 76.188 C 156.972 75.466, 156.936 74.603, 156.604 74.271 C 156.272 73.939, 156.036 74.529, 156.079 75.583 M 20 87 C 20 87.733, 20.300 88.033, 20.667 87.667 C 21.033 87.300, 21.033 86.700, 20.667 86.333 C 20.300 85.967, 20 86.267, 20 87 M 142 91 C 142 91.733, 142.300 92.033, 142.667 91.667 C 143.033 91.300, 143.033 90.700, 142.667 90.333 C 142.300 89.967, 142 90.267, 142 91 M 143.079 94.583 C 143.127 95.748, 143.364 95.985, 143.683 95.188 C 143.972 94.466, 143.936 93.603, 143.604 93.271 C 143.272 92.939, 143.036 93.529, 143.079 94.583 M 144.096 105.668 C 144.043 109.611, 143.769 113.661, 143.487 114.668 C 143.205 115.676, 143.933 114.504, 145.106 112.066 C 147.119 107.876, 147.152 107.379, 145.714 103.066 L 144.191 98.500 144.096 105.668 M 146 117 C 146 117.733, 146.300 118.033, 146.667 117.667 C 147.033 117.300, 147.033 116.700, 146.667 116.333 C 146.300 115.967, 146 116.267, 146 117 M 24 123 C 24 123.733, 24.300 124.033, 24.667 123.667 C 25.033 123.300, 25.033 122.700, 24.667 122.333 C 24.300 121.967, 24 122.267, 24 123 M 137.500 138.722 C 133.715 143.755, 133.529 144.328, 136.151 142.876 C 137.443 142.160, 138.838 141.671, 139.250 141.788 C 139.662 141.904, 140 140.650, 140 139 C 140 137.350, 139.887 136.014, 139.750 136.031 C 139.613 136.049, 138.600 137.260, 137.500 138.722 M 100.333 161.667 C 100.700 162.033, 101.300 162.033, 101.667 161.667 C 102.033 161.300, 101.733 161, 101 161 C 100.267 161, 99.967 161.300, 100.333 161.667" stroke="none" fill="#f6f0f5" fill-rule="evenodd"/><path d="M 96 18.048 C 99.575 20.382, 103.799 23.820, 105.387 25.689 L 108.273 29.087 103.156 25.906 C 98.136 22.786, 97.864 22.736, 88.770 23.262 C 78.826 23.837, 67.203 26.940, 64.367 29.776 C 63.419 30.724, 62.611 31.321, 62.571 31.103 C 62.376 30.015, 56.840 32.747, 51.415 36.609 C 41.198 43.881, 27.752 60.171, 29.556 63.090 C 30.017 63.837, 29.892 64.051, 29.232 63.643 C 27.611 62.641, 22.453 77.155, 20.989 86.836 C 19.594 96.066, 20.156 105.952, 22.617 115.457 C 24.449 122.527, 26.119 125.901, 25.857 122 C 25.765 120.625, 25.790 117.250, 25.912 114.500 L 26.136 109.500 28.399 117 C 31.304 126.631, 36.696 137.306, 38.188 136.384 C 38.805 136.003, 39.034 136.135, 38.699 136.678 C 37.816 138.107, 42.887 145.188, 44.208 144.371 C 44.840 143.981, 45.027 144.147, 44.648 144.760 C 43.007 147.415, 65.276 163.183, 68.155 161.404 C 68.814 160.997, 69.040 161.127, 68.681 161.708 C 67.809 163.119, 80.917 166.832, 89.500 167.606 C 96.739 168.258, 110.764 166.636, 112.447 164.953 C 113.051 164.349, 111.769 163.972, 108.950 163.924 C 106.502 163.882, 102.925 163.241, 101 162.500 L 97.500 161.152 102.356 161.076 C 113.883 160.895, 126.621 155.194, 135 146.464 C 139.306 141.978, 139.362 141.846, 136.300 143.388 C 131.654 145.728, 131.428 145.416, 134.904 141.457 C 139.363 136.378, 143.935 126.797, 145.562 119.122 C 147.386 110.514, 147.258 108.581, 145.176 113.289 L 143.500 117.078 143.448 105.789 C 143.419 99.580, 142.926 93.397, 142.352 92.050 C 141.553 90.174, 141.418 91.504, 141.777 97.714 C 143.459 126.771, 117.207 150.655, 88.492 146.191 C 74.048 143.946, 62.704 136.703, 54.955 124.779 C 49.519 116.412, 47.620 108.335, 48.210 96.080 C 48.629 87.390, 49.116 85.207, 51.896 79.560 C 53.658 75.980, 57.315 70.628, 60.023 67.666 C 62.730 64.703, 64.733 61.991, 64.473 61.640 C 64.213 61.288, 64.268 61.193, 64.595 61.429 C 64.923 61.664, 67.964 60.333, 71.353 58.470 C 82.352 52.424, 93.418 50.817, 105.107 53.565 C 107.431 54.112, 107.794 53.816, 108.451 50.839 L 109.187 47.500 110.602 51.500 C 111.652 54.466, 113.074 56.074, 116.104 57.719 C 119.297 59.453, 120.060 59.599, 119.594 58.385 C 118.402 55.278, 121.556 57.718, 126.270 63.550 C 128.894 66.796, 130.813 70.044, 130.535 70.769 C 130.257 71.494, 131.576 73.445, 133.467 75.105 C 135.357 76.765, 137.181 78.995, 137.520 80.062 C 137.858 81.128, 138.892 82.019, 139.817 82.042 C 140.743 82.065, 143.050 82.909, 144.944 83.918 L 148.388 85.752 152.194 81.670 C 154.287 79.425, 156 76.751, 156 75.728 C 156 74.706, 156.472 72.987, 157.048 71.911 C 157.841 70.428, 157.726 69.583, 156.573 68.430 C 154.867 66.724, 152 57.877, 152 54.318 C 152 51.819, 151.034 51.366, 149.334 53.066 C 148.579 53.821, 148.103 53.500, 147.702 51.967 C 147.390 50.776, 147.390 50.056, 147.701 50.367 C 148.344 51.010, 152 46.668, 152 45.261 C 152 44.753, 150.871 43.734, 149.491 42.995 C 148.111 42.257, 144.298 38.632, 141.018 34.941 C 132.269 25.097, 120.086 17.702, 109 15.506 C 106.059 14.923, 106.459 15.304, 111.500 17.887 C 117.207 20.810, 127.540 28.794, 126.701 29.632 C 126.485 29.849, 124.677 29.345, 122.686 28.513 C 118.715 26.854, 116.713 26.532, 118.872 27.900 C 119.626 28.378, 120.072 29.283, 119.863 29.912 C 119.651 30.547, 117.482 29.236, 114.991 26.968 C 110.761 23.118, 97.508 15.909, 92 14.462 C 90.625 14.101, 92.425 15.714, 96 18.048 M 128 46.465 C 128 47.309, 127.550 48, 127 48 C 124.476 48, 126.338 50.912, 129.250 51.519 C 131.037 51.891, 133.512 52.838, 134.750 53.621 C 137.763 55.530, 137.596 53.862, 134.392 50.054 C 130.998 46.021, 128 44.337, 128 46.465" stroke="none" fill="#3f2762" fill-rule="evenodd"/></svg>