<svg xmlns="http://www.w3.org/2000/svg" width="40" height="39" viewBox="0 0 40 39" fill="none">
  <path d="M16.9583 21.8492C16.7041 21.8492 16.4556 21.7739 16.2443 21.6327C16.0329 21.4914 15.8682 21.2906 15.7709 21.0557C15.6736 20.821 15.6482 20.5625 15.6978 20.3132C15.7473 20.0639 15.8697 19.8349 16.0495 19.6551C16.2292 19.4754 16.4582 19.3529 16.7075 19.3035C16.9568 19.2538 17.2153 19.2792 17.4501 19.3766C17.6849 19.4738 17.8858 19.6386 18.027 19.8499C18.1682 20.0613 18.2435 20.3098 18.2435 20.564C18.2435 20.7328 18.2103 20.8999 18.1457 21.0557C18.0811 21.2117 17.9865 21.3534 17.8671 21.4728C17.7478 21.5922 17.6061 21.6868 17.4501 21.7514C17.2942 21.816 17.1271 21.8492 16.9583 21.8492ZM32.6383 19.2787C32.6383 21.8208 31.8845 24.3057 30.4724 26.4192C29.06 28.5328 27.0528 30.18 24.7043 31.1528C22.3559 32.1256 19.7715 32.3802 17.2785 31.8843C14.7853 31.3883 12.4952 30.1643 10.6978 28.3669C8.90031 26.5693 7.67622 24.2793 7.18031 21.7861C6.6844 19.293 6.93892 16.7087 7.9117 14.3603C8.88447 12.0118 10.5318 10.0045 12.6454 8.59227C14.759 7.18002 17.2439 6.42624 19.7858 6.42624C23.1945 6.42624 26.4637 7.78033 28.874 10.1907C31.2842 12.601 32.6383 15.87 32.6383 19.2787ZM25.7783 17.142C25.3354 17.168 24.9177 17.357 24.6055 17.6722C23.2841 16.7988 21.7391 16.3247 20.1553 16.3066L21.055 12.242L23.9308 12.8846C23.9287 13.0526 23.9598 13.2194 24.0227 13.3752C24.0856 13.5311 24.1787 13.6729 24.2967 13.7925C24.4148 13.912 24.5556 14.007 24.7106 14.0717C24.8656 14.1365 25.0319 14.1699 25.1999 14.1699C25.5423 14.1656 25.8692 14.0267 26.1097 13.7831C26.3504 13.5395 26.4852 13.2109 26.4852 12.8685C26.4948 12.5748 26.4021 12.2868 26.2232 12.0538C26.044 11.8207 25.7896 11.657 25.5033 11.5907C25.217 11.5243 24.9165 11.5594 24.6531 11.6899C24.3898 11.8204 24.1799 12.0382 24.0593 12.3063L20.8462 11.5994C20.7697 11.5847 20.6905 11.5998 20.6248 11.6416C20.5591 11.6834 20.5118 11.7488 20.4927 11.8243L19.4967 16.3066C17.9135 16.3292 16.3698 16.8029 15.0465 17.6722C14.8726 17.4926 14.6616 17.3531 14.4282 17.2635C14.1949 17.1738 13.9448 17.1361 13.6954 17.1531C13.446 17.17 13.2033 17.241 12.9842 17.3613C12.7651 17.4816 12.5748 17.6484 12.4267 17.8497C12.2787 18.0512 12.1763 18.2825 12.1267 18.5275C12.0772 18.7725 12.0817 19.0254 12.1399 19.2684C12.1981 19.5115 12.3087 19.739 12.4638 19.935C12.619 20.131 12.815 20.2909 13.0383 20.4033C13.0137 20.6705 13.0137 20.9394 13.0383 21.2066C13.0383 23.9217 16.1068 26.1387 19.8822 26.1387C23.6576 26.1387 26.7262 23.9217 26.7262 21.2066C26.7268 20.9306 26.6944 20.6555 26.6298 20.3873C26.9545 20.2033 27.2106 19.9188 27.3592 19.5766C27.5079 19.2344 27.5413 18.8531 27.4543 18.4902C27.3672 18.1275 27.1643 17.8028 26.8766 17.5653C26.5887 17.328 26.2314 17.1907 25.8586 17.1741L25.7783 17.142ZM22.2117 23.1666C21.4898 23.6201 20.6545 23.8606 19.8019 23.8606C18.9493 23.8606 18.114 23.6201 17.3921 23.1666C17.3328 23.1125 17.2555 23.0824 17.1752 23.0824C17.0948 23.0824 17.0176 23.1125 16.9583 23.1666C16.9271 23.1952 16.9022 23.2299 16.8852 23.2686C16.8682 23.3073 16.8595 23.3493 16.8595 23.3915C16.8595 23.4338 16.8682 23.4757 16.8852 23.5144C16.9022 23.5531 16.9271 23.5878 16.9583 23.6164C17.8021 24.189 18.7983 24.4951 19.818 24.4951C20.8377 24.4951 21.8339 24.189 22.6776 23.6164C22.7088 23.5878 22.7337 23.5531 22.7507 23.5144C22.7678 23.4757 22.7766 23.4338 22.7766 23.3915C22.7766 23.3493 22.7678 23.3073 22.7507 23.2686C22.7337 23.2299 22.7088 23.1952 22.6776 23.1666C22.6476 23.135 22.6115 23.1099 22.5715 23.0927C22.5314 23.0755 22.4882 23.0665 22.4447 23.0665C22.4012 23.0665 22.3579 23.0755 22.3179 23.0927C22.2779 23.1099 22.2418 23.135 22.2117 23.1666ZM22.6134 19.2787C22.3592 19.2787 22.1107 19.3541 21.8993 19.4953C21.688 19.6365 21.5232 19.8373 21.426 20.0722C21.3288 20.3069 21.3032 20.5654 21.3529 20.8148C21.4024 21.0641 21.5248 21.293 21.7046 21.4728C21.8843 21.6526 22.1133 21.775 22.3626 21.8245C22.6119 21.8741 22.8704 21.8487 23.1053 21.7514C23.34 21.6542 23.5409 21.4894 23.6821 21.2781C23.8233 21.0667 23.8986 20.8181 23.8986 20.564C23.8986 20.2231 23.7632 19.8961 23.5222 19.6551C23.2812 19.4142 22.9543 19.2787 22.6134 19.2787Z" fill="#FF8432"/>
</svg>