<svg xmlns="http://www.w3.org/2000/svg" width="60" height="60" viewBox="0 0 60 60" fill="none">
  <path opacity="0.09" d="M30 60C46.5685 60 60 46.5685 60 30C60 13.4315 46.5685 0 30 0C13.4315 0 0 13.4315 0 30C0 46.5685 13.4315 60 30 60Z" fill="black"/>
  <path fill-rule="evenodd" clip-rule="evenodd" d="M28.6316 7.11484L28.6279 54.3114L34.2545 55.1994L41.6521 53.4737L45.3747 44.0111L41.7168 20.6729L37.5576 5.93323" fill="#BC979D"/>
  <path fill-rule="evenodd" clip-rule="evenodd" d="M28.9003 5.56085L28.5798 55.5343L19.7139 52.6794L21.5269 6.2639" fill="#AE7F9C"/>
  <path fill-rule="evenodd" clip-rule="evenodd" d="M19.1803 7.21509V52.0888C19.1803 52.0888 3.56913 43.8913 4.35487 29.3534C5.14035 14.8155 19.1803 7.21509 19.1803 7.21509Z" fill="#786076"/>
  <path fill-rule="evenodd" clip-rule="evenodd" d="M23.136 6.41864L19.1443 6.98603C19.1443 6.98603 16.4466 8.34516 14.1979 10.3121C4.39055 32.2184 28.3282 25.3252 12.5382 47.7065C19.1443 53.9491 21.9677 53.0722 21.9677 53.0722L23.136 6.41864Z" fill="#947A92"/>
  <path fill-rule="evenodd" clip-rule="evenodd" d="M36.9205 4.17195C22.6562 0.349822 7.99402 8.81504 4.17189 23.0794C0.349761 37.3437 8.81498 52.0059 23.0793 55.828C37.3437 59.6502 52.0059 51.185 55.828 36.9206C59.6501 22.6563 51.1849 7.99408 36.9205 4.17195ZM25.6098 51.3848L25.6458 51.4774C25.7986 51.8931 26.1104 52.2308 26.5124 52.4165C26.9144 52.602 27.3736 52.6203 27.7891 52.467L34.0962 50.1486C34.5115 49.9954 34.9709 50.0136 35.3728 50.1993C35.7748 50.385 36.0865 50.7227 36.2394 51.1384L36.2642 51.2114C36.5388 51.9747 36.2245 52.8249 35.5194 53.2264C23.359 56.1181 11.0092 49.2189 7.09611 37.3478C3.18307 25.4767 9.00959 12.586 20.5061 7.68C21.1771 7.74547 21.751 8.19 21.9826 8.82287C22.3189 9.73291 23.3283 10.199 24.2392 9.86504L26.2909 9.10813C26.7065 8.95474 27.1657 8.973 27.5678 9.15861C27.9696 9.34421 28.2813 9.68191 28.4343 10.0975L28.4591 10.1705C28.6122 10.586 28.594 11.0452 28.4082 11.4472C28.2228 11.8492 27.8852 12.161 27.4695 12.3138L13.1921 17.579C12.7764 17.7318 12.4386 18.0436 12.253 18.4456C12.0675 18.8476 12.0492 19.3068 12.2024 19.7223L12.2272 19.7953C12.38 20.2109 12.6918 20.5486 13.0936 20.7342C13.4956 20.9198 13.9549 20.938 14.3703 20.7848L24.8129 16.9392C25.2282 16.786 25.6875 16.8043 26.0895 16.9898C26.4915 17.1754 26.8032 17.5132 26.9561 17.9289L26.9809 18.002C27.1339 18.4173 27.1158 18.8765 26.93 19.2785C26.7445 19.6803 26.407 19.992 25.9913 20.145L9.31989 26.2859C8.90433 26.4385 8.5665 26.7502 8.38076 27.1523C8.19554 27.5543 8.17728 28.0136 8.33028 28.429L8.35507 28.5021C8.50793 28.9176 8.81967 29.2553 9.22154 29.441C9.62328 29.6266 10.0827 29.6448 10.4981 29.4916L31.0069 21.9652C31.4222 21.812 31.8815 21.8301 32.2835 22.0157C32.6855 22.2013 32.9972 22.539 33.1501 22.9546L33.211 23.1202C33.3641 23.5358 33.346 23.995 33.1604 24.3972C32.9746 24.7989 32.6368 25.1106 32.2212 25.2636L17.4821 30.6819C17.0664 30.8348 16.7286 31.1465 16.543 31.5485C16.3575 31.9503 16.3392 32.4098 16.4925 32.8251L16.5173 32.8981C16.6699 33.3136 16.9816 33.6514 17.3838 33.837C17.7855 34.0226 18.245 34.0407 18.6603 33.8876L25.4166 31.4015C25.8322 31.2484 26.2914 31.2666 26.6935 31.4524C27.0953 31.6379 27.407 31.9754 27.56 32.3911L27.5848 32.4642C27.7379 32.8796 27.7197 33.3389 27.5339 33.7409C27.3485 34.143 27.0109 34.4547 26.5952 34.6075L14.9754 38.8797C14.56 39.0323 14.2223 39.3441 14.0367 39.7462C13.8511 40.1483 13.8329 40.6076 13.9861 41.0232L14.0108 41.0962C14.1635 41.5117 14.4752 41.8495 14.8773 42.035C15.2793 42.2206 15.7386 42.2388 16.154 42.0856L31.8995 36.3C32.3149 36.147 32.7742 36.1651 33.1762 36.3509C33.5783 36.5363 33.89 36.8739 34.0428 37.2896L34.0675 37.3626C34.2207 37.7781 34.2025 38.2373 34.0169 38.6393C33.8313 39.0413 33.4935 39.3531 33.0781 39.506L23.3015 43.0981C22.8859 43.2507 22.5481 43.5625 22.3623 43.9646C22.1768 44.3666 22.1588 44.8259 22.3118 45.2413L22.3366 45.3143C22.4895 45.73 22.8012 46.0679 23.2031 46.2535C23.6051 46.439 24.0644 46.4572 24.4798 46.304L36.7598 41.7991C37.1753 41.6459 37.6345 41.6641 38.0365 41.8497C38.4385 42.0353 38.7503 42.373 38.9032 42.7886C39.2198 43.6469 38.7867 44.6 37.9318 44.9256L26.5966 49.2519C26.1818 49.4058 25.8448 49.7181 25.6601 50.1203C25.4757 50.5225 25.4583 50.9816 25.6122 51.3965L25.6098 51.3848Z" fill="white"/>
</svg>