<svg xmlns="http://www.w3.org/2000/svg" width="88" height="88" viewBox="0 0 88 88" fill="none">
  <path d="M37.5467 49.8666C36.9667 49.8666 36.3995 49.6947 35.9171 49.3724C35.4347 49.0501 35.0587 48.5917 34.8367 48.0557C34.6147 47.52 34.5566 46.93 34.6698 46.3609C34.783 45.7919 35.0624 45.2694 35.4726 44.8591C35.8828 44.4488 36.4055 44.1694 36.9744 44.0564C37.5434 43.9431 38.1334 44.0011 38.6691 44.2233C39.2052 44.4451 39.6635 44.8213 39.9858 45.3035C40.3081 45.786 40.4801 46.3532 40.4801 46.9333C40.4801 47.3187 40.4042 47.7 40.2568 48.0557C40.1094 48.4117 39.8934 48.7351 39.621 49.0075C39.3485 49.28 39.0251 49.4959 38.6691 49.6433C38.3134 49.7907 37.9321 49.8666 37.5467 49.8666ZM73.3334 44C73.3334 49.8017 71.613 55.4729 68.39 60.2968C65.1666 65.1207 60.5855 68.8801 55.2256 71.1003C49.8656 73.3205 43.9674 73.9016 38.2775 72.7697C32.5873 71.6378 27.3606 68.8442 23.2583 64.7419C19.156 60.6393 16.3622 55.4128 15.2304 49.7225C14.0986 44.0326 14.6795 38.1344 16.8996 32.7746C19.1198 27.4146 22.8795 22.8334 27.7034 19.6102C32.5272 16.387 38.1987 14.6666 44.0001 14.6666C51.7796 14.6666 59.2409 17.7571 64.742 23.2582C70.2428 28.7592 73.3334 36.2203 73.3334 44ZM57.6767 39.1233C56.6658 39.1827 55.7125 39.6139 55.0001 40.3333C51.9842 38.3401 48.458 37.2581 44.8434 37.2166L46.8967 27.94L53.4601 29.4066C53.4553 29.7901 53.5264 30.1707 53.6698 30.5264C53.8135 30.8821 54.0258 31.2057 54.2953 31.4786C54.5648 31.7515 54.886 31.9682 55.2399 32.116C55.5937 32.2639 55.9732 32.34 56.3567 32.34C57.1381 32.3303 57.8843 32.0131 58.4332 31.4572C58.9824 30.9013 59.2901 30.1513 59.2901 29.37C59.3121 28.6995 59.1005 28.0423 58.692 27.5104C58.2832 26.9784 57.7024 26.6049 57.049 26.4534C56.3956 26.3019 55.7099 26.382 55.1086 26.6798C54.5076 26.9777 54.0288 27.4749 53.7534 28.0866L46.4201 26.4733C46.2455 26.4398 46.0648 26.4743 45.9148 26.5697C45.7648 26.6652 45.657 26.8143 45.6134 26.9866L43.3401 37.2166C39.7269 37.2683 36.2036 38.3493 33.1834 40.3333C32.7865 39.9234 32.305 39.6051 31.7724 39.4005C31.2398 39.1959 30.669 39.1097 30.0998 39.1486C29.5306 39.1871 28.9766 39.3492 28.4765 39.6238C27.9765 39.8984 27.5423 40.279 27.2043 40.7385C26.8664 41.1983 26.6327 41.7263 26.5196 42.2854C26.4066 42.8446 26.4169 43.4217 26.5498 43.9765C26.6826 44.5313 26.9349 45.0505 27.289 45.4978C27.6432 45.9451 28.0906 46.31 28.6001 46.5666C28.544 47.1764 28.544 47.7902 28.6001 48.4C28.6001 54.5966 35.6034 59.6566 44.2201 59.6566C52.8367 59.6566 59.8401 54.5966 59.8401 48.4C59.8415 47.77 59.7675 47.1423 59.6201 46.53C60.3611 46.1101 60.9456 45.4608 61.2847 44.6798C61.6243 43.8988 61.7005 43.0287 61.5018 42.2004C61.3031 41.3724 60.84 40.6314 60.1833 40.0895C59.5262 39.5479 58.7107 39.2344 57.8601 39.1966L57.6767 39.1233ZM49.5367 52.8733C47.8889 53.9084 45.9826 54.4573 44.0367 54.4573C42.0908 54.4573 40.1845 53.9084 38.5367 52.8733C38.4014 52.7497 38.2251 52.6812 38.0417 52.6812C37.8584 52.6812 37.682 52.7497 37.5467 52.8733C37.4756 52.9386 37.4188 53.0177 37.3799 53.1061C37.341 53.1945 37.3212 53.2902 37.3212 53.3866C37.3212 53.4831 37.341 53.5788 37.3799 53.6671C37.4188 53.7555 37.4756 53.8347 37.5467 53.9C39.4725 55.2068 41.7462 55.9053 44.0734 55.9053C46.4006 55.9053 48.6743 55.2068 50.6001 53.9C50.6712 53.8347 50.728 53.7555 50.7669 53.6671C50.8058 53.5788 50.8259 53.4831 50.8259 53.3866C50.8259 53.2902 50.8058 53.1945 50.7669 53.1061C50.728 53.0177 50.6712 52.9386 50.6001 52.8733C50.5315 52.8011 50.449 52.7439 50.3577 52.7046C50.2664 52.6654 50.1678 52.6449 50.0684 52.6449C49.969 52.6449 49.8704 52.6654 49.7791 52.7046C49.6878 52.7439 49.6053 52.8011 49.5367 52.8733ZM50.4534 44C49.8733 44 49.3061 44.1719 48.8236 44.4942C48.3414 44.8165 47.9652 45.2749 47.7434 45.8109C47.5215 46.3466 47.4632 46.9366 47.5765 47.5057C47.6895 48.0747 47.9689 48.5972 48.3792 49.0075C48.7895 49.4178 49.312 49.6972 49.881 49.8102C50.4501 49.9235 51.0401 49.8655 51.5761 49.6433C52.1118 49.4215 52.5702 49.0453 52.8925 48.5631C53.2148 48.0806 53.3867 47.5134 53.3867 46.9333C53.3867 46.1552 53.0776 45.4091 52.5276 44.8591C51.9776 44.3091 51.2315 44 50.4534 44Z" fill="#FF8432"/>
</svg>