<svg xmlns="http://www.w3.org/2000/svg" width="87" height="87" viewBox="0 0 87 87" fill="none">
  <path d="M72.5 43.6812C72.4322 38.1549 70.7864 32.763 67.7567 28.1407C64.7269 23.5183 60.4396 19.8579 55.3994 17.5905C50.3589 15.3232 44.7756 14.5434 39.307 15.3429C33.8384 16.1424 28.7121 18.4879 24.5318 22.1033C20.3515 25.7187 17.2914 30.4533 15.7118 35.7495C14.1323 41.0458 14.099 46.6831 15.616 51.9977C17.133 57.3123 20.137 62.0824 24.2743 65.747C28.4116 69.4115 33.5099 71.8174 38.9687 72.6812V52.1275H31.7188V43.6812H38.9687V37.265C38.8009 35.7731 38.9626 34.2626 39.4425 32.84C39.9225 31.4174 40.7087 30.1174 41.7459 29.0319C42.783 27.9464 44.0456 27.1017 45.4448 26.5576C46.8441 26.0134 48.3459 25.783 49.8437 25.8826C52.018 25.9123 54.1872 26.1062 56.3325 26.4626V33.7126H52.7075C52.0825 33.6337 51.4474 33.6964 50.85 33.8959C50.2523 34.0953 49.7071 34.4266 49.2547 34.865C48.8023 35.3035 48.4543 35.8381 48.2364 36.429C48.0182 37.0203 47.9359 37.6528 47.995 38.28V43.7537H56.0425L54.7375 52.2H48.0312V72.5C54.8821 71.4165 61.1178 67.9133 65.607 62.6258C70.0962 57.3384 72.5417 50.6173 72.5 43.6812Z" fill="#5B76C7"/>
</svg>