<svg xmlns="http://www.w3.org/2000/svg" width="76" height="76" viewBox="0 0 76 76" fill="none">
  <path fill-rule="evenodd" clip-rule="evenodd" d="M47.406 10.5884C41.2192 9.1372 34.7808 9.1372 28.5942 10.5884C19.66 12.6841 12.6841 19.66 10.5884 28.5942C9.1372 34.7808 9.1372 41.2192 10.5884 47.406C12.6841 56.3401 19.66 63.3159 28.5942 65.4116C34.7808 66.8629 41.2192 66.8629 47.406 65.4116C56.3401 63.3159 63.3159 56.3401 65.4116 47.406C66.8629 41.2192 66.8629 34.7808 65.4116 28.5942C63.3159 19.66 56.3401 12.6841 47.406 10.5884ZM27.0868 38C27.0868 31.9729 31.9729 27.0869 38 27.0869C44.0271 27.0869 48.913 31.9729 48.913 38C48.913 44.0271 44.0271 48.913 38 48.913C31.9729 48.913 27.0868 44.0271 27.0868 38ZM38 30.7247C33.9818 30.7247 30.7246 33.9818 30.7246 38C30.7246 42.0182 33.9818 45.2754 38 45.2754C42.0179 45.2754 45.2754 42.0182 45.2754 38C45.2754 33.9818 42.0179 30.7247 38 30.7247ZM50.1255 27.3901C51.7997 27.3901 53.1569 26.0329 53.1569 24.3587C53.1569 22.6845 51.7997 21.3273 50.1255 21.3273C48.4513 21.3273 47.094 22.6845 47.094 24.3587C47.094 26.0329 48.4513 27.3901 50.1255 27.3901Z" fill="#FF7298"/>
</svg>